<?xml version="1.0" encoding="UTF-8"?>
<svg id="Layer_2" data-name="Layer 2" xmlns="http://www.w3.org/2000/svg" width="113.57mm" height="21.57mm" viewBox="0 0 321.94 61.13">
  <defs>
    <style>
      .cls-1 {
        fill: #fff;
      }
    </style>
  </defs>
  <g id="Capa_1" data-name="Capa 1">
    <g>
      <g>
        <g>
          <path class="cls-1" d="M102.2,13c-1.92-2.35-5.3-3.94-8.37-3.94-6.22,0-11.35,5.36-11.35,11.48,0,2.91,1.26,5.66,3.34,7.71,2.08,1.99,5.06,3.44,8.01,3.44s6.52-1.56,8.37-3.81v2.19c-2.35,1.95-5.23,3.11-8.31,3.11-6.95,0-13.01-5.79-13.01-12.77s5.96-12.84,13.04-12.84c3.01,0,6.06,1.19,8.28,3.24v2.18Z"/>
          <path class="cls-1" d="M104.45,20.38c0,6.16,5.13,11.32,11.35,11.32s11.35-5.2,11.35-11.32-5.16-11.32-11.35-11.32-11.35,5.16-11.35,11.32m24.29,0c0,7.02-5.92,12.81-12.94,12.81s-12.94-5.79-12.94-12.81,5.89-12.81,12.94-12.81,12.94,5.79,12.94,12.81"/>
          <polygon class="cls-1" points="133.07 31.37 139.43 31.37 139.43 32.86 131.48 32.86 131.48 7.9 133.07 7.9 133.07 31.37"/>
          <polygon class="cls-1" points="142.54 9.39 142.54 18.46 152.6 18.46 152.6 19.95 142.54 19.95 142.54 31.37 152.87 31.37 152.87 32.86 140.96 32.86 140.96 7.9 152.87 7.9 152.87 9.39 142.54 9.39"/>
          <path class="cls-1" d="M179.41,20.84c.07,3.14-.4,5.89-2.61,8.31-2.38,2.58-5.96,4.04-9.46,4.04-6.92,0-12.81-5.82-12.81-12.71s5.86-12.91,13.01-12.91c4.53,0,8.21,2.25,10.82,5.83l-1.29,1.02c-2.22-3.31-5.59-5.36-9.63-5.36-6.09,0-11.32,5.33-11.32,11.32s5.1,11.32,11.32,11.32c2.68,0,5.3-1.09,7.35-2.75,2.15-1.82,2.95-3.91,3.04-6.62h-8.94v-1.49h10.52Z"/>
          <rect class="cls-1" x="182.1" y="7.9" width="1.59" height="24.95"/>
          <path class="cls-1" d="M187.99,20.38c0,6.16,5.13,11.32,11.35,11.32s11.35-5.2,11.35-11.32-5.16-11.32-11.35-11.32-11.35,5.16-11.35,11.32m24.29,0c0,7.02-5.92,12.81-12.94,12.81s-12.94-5.79-12.94-12.81,5.89-12.81,12.94-12.81,12.94,5.79,12.94,12.81"/>
          <path class="cls-1" d="M222.9,20.15h.98c3.13,0,6.52-.59,6.52-4.5s-3.65-4.3-6.68-4.3h-.82v8.8Zm0,13.04h-3.06V8.62h3.52c7.56,0,9.91,2.61,9.91,7.11,0,5.18-3.94,7.17-8.6,7.17h-1.76v10.3Z"/>
          <path class="cls-1" d="M241.13,14.29l-4.37,9.94h8.74l-4.37-9.94Zm-5.64,12.74l-2.8,6.16h-3.29l11.73-25.62,11.73,25.62h-3.29l-2.8-6.16h-11.28Z"/>
          <rect class="cls-1" x="253.37" y="8.62" width="3.06" height="24.57"/>
          <path class="cls-1" d="M262.4,30.39h1.08c6.26,0,11.67-2.35,11.67-9.48s-5.41-9.48-11.67-9.48h-1.08V30.39Zm-3.06-21.77h5.08c7.53,0,13.78,3.98,13.78,12.16s-6.13,12.42-13.88,12.42h-4.99V8.62Z"/>
          <polygon class="cls-1" points="279.95 8.62 293.14 8.62 293.14 11.42 283.01 11.42 283.01 18.29 292.85 18.29 292.85 21.1 283.01 21.1 283.01 30.39 293.14 30.39 293.14 33.19 279.95 33.19 279.95 8.62"/>
          <rect class="cls-1" x="294.94" y="8.62" width="3.06" height="24.57"/>
          <path class="cls-1" d="M310.2,14.29l-4.37,9.94h8.73l-4.37-9.94Zm-5.64,12.74l-2.8,6.16h-3.29l11.73-25.62,11.73,25.62h-3.29l-2.8-6.16h-11.28Z"/>
          <path class="cls-1" d="M260.04,52.07h1.69c.78,0,1.59,.03,2.26-.43,.68-.46,1.09-1.15,1.09-1.97s-.4-1.62-1.15-1.98c-.68-.34-1.6-.35-2.34-.35h-1.56v4.73Zm0-5.39h1.22c.75,0,1.35,.04,1.98-.41,.63-.45,.82-1.01,.82-1.78,0-.72-.28-1.43-.91-1.82-.56-.35-1.25-.35-1.9-.35h-1.22v4.36Zm-.71,6.05v-11.08h2.22c.84,0,1.63,.06,2.29,.65,.68,.59,.93,1.41,.93,2.29,0,1.01-.4,1.76-1.28,2.26,1.37,.28,2.29,1.38,2.29,2.79,0,.9-.34,1.7-1.03,2.29-.78,.66-1.6,.79-2.59,.79h-2.84Z"/>
          <path class="cls-1" d="M267.13,49.29c0,1.56,1.03,2.97,2.67,2.97,1.73,0,2.67-1.41,2.67-3.04s-1.07-2.81-2.72-2.81c-1.56,0-2.63,1.41-2.63,2.88m5.97,3.44h-.66v-1.22h-.03c-.5,.87-1.59,1.37-2.59,1.37-2.06,0-3.35-1.6-3.35-3.58s1.28-3.5,3.32-3.5c1.04,0,2.04,.47,2.62,1.32h.03v-1.17h.66v6.79Z"/>
          <path class="cls-1" d="M279.97,47.51c-.65-.71-1.42-1.1-2.39-1.1-1.6,0-2.81,1.37-2.81,2.91s1.19,2.94,2.79,2.94c.97,0,1.88-.47,2.5-1.22v.9c-.69,.6-1.56,.94-2.47,.94-2.01,0-3.48-1.57-3.48-3.56s1.5-3.53,3.5-3.53c.88,0,1.69,.26,2.37,.84v.88Z"/>
          <path class="cls-1" d="M281.74,40.61v6.39h.03c.4-.75,1.13-1.2,2.01-1.2,1.75,0,2.23,1.09,2.23,2.84v4.1h-.66v-4.1c0-1.22-.15-2.22-1.63-2.22-1.7,0-1.98,1.59-1.98,2.97v3.35h-.66v-12.12h.66Z"/>
          <path class="cls-1" d="M288.28,52.73h-.66v-6.79h.66v6.79Zm.28-9.05c0,.34-.26,.6-.6,.6s-.6-.26-.6-.6,.26-.6,.6-.6,.6,.28,.6,.6"/>
          <rect class="cls-1" x="289.93" y="40.61" width=".66" height="12.12"/>
          <rect class="cls-1" x="292.09" y="40.61" width=".66" height="12.12"/>
          <path class="cls-1" d="M299.65,48.78c-.16-1.25-1.19-2.37-2.59-2.37s-2.53,1.09-2.64,2.37h5.23Zm-5.23,.62c-.04,1.72,1.15,2.86,2.72,2.86,1.06,0,1.91-.63,2.39-1.54l.56,.32c-.62,1.17-1.7,1.84-3.04,1.84-2.01,0-3.29-1.63-3.29-3.56s1.31-3.53,3.29-3.53,3.28,1.65,3.26,3.6h-5.89Z"/>
          <path class="cls-1" d="M301.94,46.82h.03c.26-.62,.75-1.03,1.47-1.03,.26,0,.49,.06,.72,.16l-.35,.59c-.16-.09-.29-.13-.47-.13-1.48,0-1.4,1.85-1.4,2.85v3.47h-.66v-6.79h.66v.88Z"/>
          <path class="cls-1" d="M304.46,49.29c0,1.56,1.03,2.97,2.67,2.97,1.73,0,2.67-1.41,2.67-3.04s-1.07-2.81-2.72-2.81c-1.56,0-2.63,1.41-2.63,2.88m5.97,3.44h-.66v-1.22h-.03c-.5,.87-1.59,1.37-2.59,1.37-2.06,0-3.35-1.6-3.35-3.58s1.28-3.5,3.32-3.5c1.04,0,2.04,.47,2.62,1.32h.03v-1.17h.66v6.79Z"/>
          <polygon class="cls-1" points="312.74 52.73 312.08 52.73 312.08 46.56 311.33 46.56 311.33 45.94 312.08 45.94 312.08 43.52 312.74 43.52 312.74 45.94 313.93 45.94 313.93 46.56 312.74 46.56 312.74 52.73"/>
          <path class="cls-1" d="M314.41,49.35c0,1.54,1.22,2.91,2.82,2.91s2.95-1.26,2.95-2.91-1.28-2.94-2.95-2.94-2.82,1.37-2.82,2.94m6.44-.01c0,2.01-1.57,3.54-3.57,3.54s-3.53-1.6-3.53-3.53,1.56-3.56,3.53-3.56,3.57,1.53,3.57,3.54"/>
        </g>
        <path class="cls-1" d="M60.4,32.32c-.05,.48-.11,.97-.17,1.45-.03,.22-.08,.44-.12,.66-.09,.59-.17,1.19-.28,1.77-.07,.39-.17,.77-.29,1.14-.2,.67-.41,1.35-.64,2.01-.26,.73-.55,1.46-.86,2.17-.23,.52-.52,1.02-.76,1.54-.14,.32-.3,.62-.49,.91-.2,.29-.33,.63-.5,.94-.09,.17-.2,.34-.31,.5-.27,.41-.53,.84-.84,1.23-.64,.82-1.24,1.67-2,2.4-.29,.28-.52,.62-.82,.89-.75,.71-1.51,1.4-2.29,2.08-.46,.41-.94,.81-1.45,1.16-.56,.37-1.07,.84-1.73,1.04-.21,.07-.38,.19-.51,.37-.08,.11-.18,.19-.28,.28-.24,.2-.6,.21-.88,.03,.08-.33,.28-.58,.57-.67,.48-.15,.81-.49,1.17-.8,.19-.16,.38-.3,.58-.45,.71-.55,1.46-1.05,2.1-1.69,.5-.5,.99-1,1.48-1.51,.39-.41,.76-.83,1.14-1.25,.04-.05,.09-.1,.12-.16,.32-.6,.79-1.09,1.18-1.65,.05-.07,.1-.14,.14-.21,.25-.36,.51-.72,.74-1.09,.17-.27,.3-.56,.46-.83,.54-.95,1-1.93,1.42-2.93,.43-1,.73-2.05,1.04-3.09,.33-1.12,.64-2.24,.76-3.4,.1-.99,.28-1.98,.28-2.99,0-.49,.07-.99,0-1.48-.02-.17,.04-.36,.03-.53-.01-.36-.04-.73-.07-1.09-.06-.63-.12-1.27-.21-1.9-.05-.36-.17-.71-.25-1.07-.04-.16-.09-.31-.08-.47,.02-.48-.11-.94-.24-1.38-.4-1.31-.8-2.62-1.27-3.9-.02-.06-.04-.13-.07-.18-.53-.95-.88-1.99-1.52-2.88-.09-.13-.17-.27-.25-.41-.31-.64-.76-1.19-1.19-1.74-.39-.5-.76-1-1.14-1.5-.13-.17-.28-.33-.43-.48-.7-.69-1.31-1.47-2.09-2.08-.15-.11-.25-.28-.39-.41-.14-.13-.29-.24-.43-.36-.04-.04-.1-.06-.13-.1-.45-.43-.98-.76-1.46-1.15-.45-.36-.92-.67-1.42-.95-.42-.23-.8-.51-1.21-.77-.13-.09-.26-.2-.41-.24-.49-.15-.9-.43-1.3-.71-.43-.3-.91-.44-1.37-.63-.33-.13-.66-.26-1-.38h-.03c-.58-.23-1.15-.46-1.74-.66-.21-.07-.44-.07-.66-.11-.11-.02-.22-.03-.33-.07-.74-.25-1.51-.37-2.27-.51-.54-.1-1.09-.14-1.64-.21-.62-.07-1.24-.15-1.87-.22-.07,0-.15,0-.22,0-.52,0-1.05,0-1.57,.01-.35,.01-.69,.06-1.03,.09-.05,0-.1,.02-.14,0-.55-.14-1.08,.05-1.61,.11-.53,.06-1.06,.11-1.59,.17-.35,.04-.71,.09-1.05,.17-.82,.19-1.64,.39-2.46,.61-.62,.17-1.27,.31-1.85,.58-.59,.27-1.25,.43-1.77,.84-.01,.01-.03,.02-.05,.03-.5,.23-.99,.49-1.51,.68-.4,.15-.76,.36-1.09,.62-.2,.16-.43,.31-.64,.46-.08,.05-.16,.1-.23,.16-.49,.34-.99,.68-1.48,1.02-.14,.1-.28,.22-.41,.33-.2,.16-.4,.33-.61,.5-.09,.08-.19,.16-.29,.22-.12,.08-.23,.16-.36,.21-.06,.02-.17,0-.22-.04-.04-.03-.04-.14-.02-.2,.05-.12,.11-.25,.19-.34,.51-.51,1.03-1.01,1.56-1.5,.15-.14,.33-.24,.5-.37,.2-.15,.39-.32,.59-.47,.15-.11,.29-.24,.46-.32,.3-.16,.59-.33,.84-.56,.27-.24,.58-.41,.91-.56,.19-.08,.37-.21,.53-.36,.18-.16,.35-.3,.6-.35,.23-.04,.44-.16,.62-.32,.45-.38,.98-.59,1.52-.77,.31-.1,.61-.24,.9-.38,.44-.21,.9-.38,1.36-.54,.71-.25,1.44-.42,2.17-.57,.22-.05,.43-.14,.65-.2,.53-.14,1.05-.27,1.58-.39,.07-.02,.15-.03,.22-.03,.73,.02,1.44-.1,2.15-.23,.12-.02,.24-.05,.36-.05,1.28-.02,2.55-.04,3.83-.05,.22,0,.44,.06,.67,.09,.29,.03,.58,.05,.87,.08,.25,.02,.51,.04,.76,.07,.45,.06,.91,.12,1.35,.25,.33,.1,.68,.11,1.02,.18,.52,.11,1.06,.14,1.55,.38,.11,.06,.25,.07,.38,.11,.4,.13,.8,.26,1.16,.49,.1,.06,.22,.11,.34,.13,.58,.09,1.13,.27,1.63,.58,.09,.06,.21,.1,.31,.12,.5,.14,.97,.34,1.4,.65,.13,.09,.27,.17,.42,.22,.51,.19,.96,.46,1.41,.76,.22,.15,.46,.25,.69,.38,.17,.1,.34,.19,.5,.3,.29,.2,.57,.43,.88,.61,.72,.41,1.33,.94,1.92,1.51,.51,.49,1.06,.95,1.57,1.45,.34,.32,.64,.68,.96,1.03,.17,.18,.32,.37,.5,.53,.38,.32,.69,.69,.95,1.11,.25,.42,.54,.81,.87,1.17,.13,.14,.23,.31,.34,.48,.09,.15,.15,.33,.26,.46,.42,.5,.64,1.1,.93,1.66,.03,.06,.06,.12,.1,.17,.28,.31,.43,.7,.61,1.07,.09,.19,.19,.37,.28,.55,.08,.18,.16,.36,.23,.54,.04,.11,.07,.24,.13,.34,.18,.33,.29,.69,.4,1.05,.16,.53,.35,1.05,.55,1.56,.15,.39,.26,.78,.31,1.19,0,.07,.02,.13,.04,.19,.3,.76,.34,1.57,.53,2.35,.08,.33,.14,.68,.17,1.02,.05,.54,.06,1.08,.1,1.63,.01,.21,.04,.43,.05,.64,.01,.21,.02,.43,.02,.64,.01,.7,.03,1.41,.04,2.11,0,.2-.02,.39-.04,.59M18.26,22.31c-.12,.08-.22,.18-.33,.27-.32,.25-.68,.25-1.01,0-.06-.04-.11-.1-.17-.15-.37-.39-.74-.8-1.11-1.19-.27-.27-.56-.53-.84-.79-.06-.06-.13-.11-.19-.17-.49-.53-1.07-.94-1.66-1.34-.21-.14-.4-.31-.61-.45-.15-.1-.31-.16-.48-.23-.22-.09-.47-.13-.68-.25-.68-.39-1.43-.61-2.17-.86-.11-.04-.22-.07-.32,.03-.1,.1-.08,.22-.05,.34,.06,.18,.18,.3,.33,.4,.22,.15,.45,.3,.66,.47,.13,.1,.25,.24,.32,.38,.19,.36,.5,.63,.79,.91,.08,.08,.16,.16,.23,.24,.13,.14,.25,.27,.38,.41,.03,.03,.06,.05,.08,.08,.25,.34,.51,.67,.73,1.02,.13,.2,.26,.37,.48,.46,.34,.14,.61,.36,.8,.68,.06,.1,.16,.18,.24,.27,.06,.07,.14,.13,.2,.2,.5,.54,1.01,1.08,1.5,1.64,.36,.41,.47,.88,.3,1.41,0,.03-.03,.05-.03,.08-.11,.54-.51,.75-.98,.89-.32,.1-1.07-.12-1.25-.52-.11-.25-.21-.5-.3-.76-.04-.1-.04-.21-.09-.29-.33-.51-.43-1.12-.71-1.65-.27-.5-.52-1-.86-1.45-.17-.22-.29-.48-.43-.73-.15-.27-.33-.51-.55-.74-.5-.5-.99-1.03-1.45-1.57-.3-.34-.66-.58-1.04-.81-.03-.02-.1-.02-.13,0-.03,.02-.05,.09-.04,.12,.13,.3,.25,.61,.41,.89,.2,.34,.43,.66,.65,.98,.12,.18,.25,.35,.37,.53,.2,.31,.4,.61,.58,.93,.16,.28,.29,.59,.45,.88,.12,.22,.27,.43,.4,.64,.11,.17,.22,.33,.33,.49,.18,.28,.36,.55,.52,.83,.08,.13,.13,.27,.19,.4,.07,.15,.13,.31,.21,.46,.15,.29,.33,.57,.47,.86,.11,.23,.23,.45,.42,.62,.07,.06,.13,.14,.18,.21,.1,.14,.12,.3,.02,.45-.1,.14-.26,.15-.41,.11-.16-.05-.33-.1-.47-.18-.54-.3-1.11-.51-1.69-.69-.3-.09-.49-.29-.63-.56-.25-.51-.46-1.03-.66-1.55-.23-.6-.5-1.19-.74-1.79-.09-.22-.17-.46-.24-.69-.11-.4-.29-.77-.51-1.12-.11-.17-.2-.36-.29-.55-.26-.57-.5-1.15-.77-1.72-.07-.16-.19-.3-.3-.44-.36-.47-.38-.78-.09-1.29,.13-.23,.21-.48,.32-.71,.19-.38,.36-.77,.58-1.12,.24-.39,.55-.46,.97-.25,.57,.29,1.13,.6,1.69,.9,.02,0,.03,.02,.05,.03,.58,.17,1.06,.55,1.62,.77,0,0,.02,0,.03,0,.59,.31,1.17,.63,1.76,.94,.13,.07,.26,.15,.41,.19,.38,.1,.72,.27,1.03,.5,.34,.26,.72,.42,1.14,.52,.27,.07,.53,.19,.77,.33,.35,.2,.72,.36,1.11,.46,.18,.05,.36,.16,.51,.28,.14,.11,.24,.26,.35,.4,.14,.18,.2,.38,.18,.61-.02,.43-.15,.81-.52,1.07m-2.93,22.03c.18-.04,.39-.04,.48,.13,.1,.18-.05,.35-.18,.46-.15,.13-.34,.22-.51,.34-.52,.35-1.04,.71-1.56,1.06-.09,.06-.19,.13-.29,.18-.32,.15-.56,0-.6-.34,0-.1,0-.21,0-.31,0-.57,.18-.86,.75-1.02,.63-.18,1.27-.33,1.9-.49M62.26,28.15c-.06-.41-.1-.82-.02-1.23,.02-.12,0-.24-.01-.36-.1-.57-.2-1.14-.29-1.72-.01-.08-.02-.17-.02-.25-.02-.53-.12-1.04-.24-1.55-.2-.79-.39-1.58-.59-2.37-.05-.21-.13-.41-.2-.61-.04-.1-.1-.19-.12-.29-.1-.46-.28-.89-.47-1.32-.3-.69-.61-1.39-.9-2.09-.25-.59-.62-1.13-.94-1.69-.02-.03-.04-.06-.06-.09-.15-.26-.33-.5-.45-.78-.15-.36-.36-.66-.62-.93-.25-.27-.47-.56-.62-.9-.06-.14-.13-.27-.22-.39-.26-.35-.54-.69-.81-1.04-.04-.05-.09-.09-.14-.14-.16-.17-.33-.33-.49-.5-.25-.25-.49-.52-.74-.77-.29-.29-.6-.56-.9-.85-.1-.1-.18-.21-.29-.31-.75-.68-1.51-1.35-2.3-1.99-.13-.11-.26-.21-.4-.3-.42-.29-.84-.57-1.27-.84-.12-.08-.24-.16-.37-.2-.36-.11-.65-.32-.95-.54-.26-.19-.53-.34-.82-.49-.5-.26-1-.52-1.51-.76-.57-.27-1.13-.55-1.71-.78-.66-.27-1.34-.49-2.01-.72-.22-.08-.45-.12-.68-.17-.16-.04-.33-.06-.49-.11-.42-.12-.84-.26-1.26-.38-.1-.03-.2-.05-.3-.06-.84-.13-1.69-.23-2.52-.39-.82-.16-1.63-.21-2.46-.2-.32,0-.64-.04-.95-.03-.6,0-1.2,.04-1.8,.05-.07,0-.15,.01-.22,.02-.51,.04-1.02,.12-1.54,.12-.62,0-1.23,.08-1.84,.22-1.23,.27-2.45,.56-3.67,.84-.14,.03-.28,.1-.42,.16-.28,.11-.55,.26-.83,.33-.63,.17-1.23,.39-1.82,.66-.83,.37-1.64,.79-2.44,1.23-.42,.23-.83,.47-1.25,.7-.62,.35-1.25,.68-1.81,1.12-.36,.29-.74,.54-1.11,.82-.22,.16-.42,.35-.63,.52-.09,.08-.2,.14-.29,.23-.39,.37-.77,.74-1.16,1.1-.34,.32-.68,.64-1.02,.97-.12,.12-.24,.24-.34,.37-.22,.27-.46,.51-.74,.72-.13,.11-.26,.25-.33,.4-.16,.32-.35,.59-.6,.84-.17,.16-.3,.36-.43,.55-.14,.19-.28,.38-.39,.58-.32,.55-.82,.98-1.05,1.59-.03,.08-.09,.14-.14,.21-.2,.25-.44,.31-.75,.21-.47-.15-.94-.31-1.4-.51-.44-.18-.76-.45-.99-.87-.29-.51-.62-1.01-.95-1.5-.23-.35-.49-.69-.74-1.02-.07-.09-.16-.2-.27-.24-.42-.15-.85-.19-1.25,.03-.44,.24-.72,.62-.83,1.12-.05,.24,.01,.45,.17,.63,.07,.08,.16,.16,.25,.22,.49,.35,.98,.69,1.46,1.05,.24,.18,.44,.41,.65,.61,.14,.13,.28,.27,.43,.4,.14,.13,.3,.26,.44,.39,.22,.22,.42,.45,.64,.68,.15,.16,.33,.31,.47,.48,.23,.29,.43,.59,.65,.88,.14,.19,.2,.4,.19,.63,0,.13,0,.26,0,.39,0,.24-.06,.46-.18,.67-.11,.2-.19,.43-.28,.64-.04,.09-.06,.18-.1,.26-.48,.86-.61,1.83-.9,2.75-.01,.04-.01,.09-.02,.14-.17,.96-.42,1.9-.79,2.81-.03,.08-.04,.16-.06,.24-.04,.27-.04,.55-.13,.8-.16,.46-.19,.94-.23,1.41-.04,.49-.03,.98-.11,1.47-.1,.64-.09,1.3-.13,1.95,0,.08-.01,.17-.02,.25-.02,.84,.24,1.65,.19,2.49,0,.04,.02,.07,.02,.11,.08,.64,.19,1.28,.18,1.93,0,.1,0,.21,.04,.31,.2,.78,.41,1.56,.61,2.34,.02,.08,.04,.16,.05,.25,.04,.43,.16,.82,.33,1.21,.21,.49,.42,.98,.61,1.48,.14,.36,.25,.75,.41,1.1,.26,.55,.55,1.09,.85,1.62,.24,.43,.52,.85,.77,1.28,.41,.7,.81,1.39,1.38,1.98,.07,.07,.13,.16,.19,.24,.33,.44,.65,.9,1,1.32,.27,.31,.58,.59,.88,.86,.19,.17,.42,.21,.66,.11,.37-.16,.75-.31,1.09-.52,.5-.29,1.03-.55,1.46-.94,.05-.04,.11-.08,.17-.1,.52-.21,.94-.58,1.43-.83,.19-.1,.39-.18,.59-.25,.16-.06,.35-.1,.46,.07,.11,.17-.01,.33-.12,.45-.42,.47-.82,.96-1.28,1.38-.36,.33-.7,.67-1.05,1.02-.12,.12-.24,.24-.36,.36-.35,.34-.69,.69-1.04,1.03-.36,.37-.72,.73-1.19,.98-.42,.22-.83,.48-1.23,.73-.09,.05-.25,.11-.19,.24,.03,.08,.16,.13,.26,.18,.07,.04,.16,.05,.24,.06,.28,.05,.55,.1,.83,.15,.3,.05,.61,.13,.92,.13,.73,0,1.45-.16,2.15-.37,.25-.07,.49-.21,.65-.42,.36-.45,.73-.91,1.07-1.38,.21-.29,.35-.62,.55-.92,.39-.55,.77-1.11,.99-1.76,.03-.1,.09-.18,.14-.28,.08-.15,.16-.3,.23-.45,.13-.31,.23-.64,.37-.94,.32-.71,.56-1.46,.66-2.23,.06-.45,.16-.88,.22-1.33,.06-.45,.08-.91,.09-1.37,0-.28-.14-.38-.42-.34-.05,0-.11,.03-.16,.04-.66,.17-1.32,.35-1.99,.52-.22,.06-.44,.11-.66,.15-.38,.06-.66-.18-.66-.56,0-.09,0-.19,.03-.28,.12-.47,.18-.96,.4-1.4,.02-.04,.03-.09,.04-.13,.19-.75,.37-1.49,.75-2.18,.08-.14,.1-.3,.14-.45,.07-.24,.13-.49,.23-.72,.19-.45,.4-.89,.61-1.33,.04-.09,.1-.18,.14-.28,.22-.44,.45-.86,.65-1.31,.23-.52,.47-1.02,.82-1.47,.08-.1,.15-.22,.19-.34,.13-.34,.37-.61,.59-.89,.18-.22,.36-.46,.48-.72,.18-.37,.35-.73,.64-1.02,.09-.09,.18-.19,.27-.29,.43-.47,.84-.96,1.28-1.42,.28-.3,.59-.57,.89-.86,.18-.18,.34-.38,.54-.53,.41-.32,.84-.62,1.27-.94,.2-.15,.41-.29,.61-.45,.24-.19,.29-.39,.16-.67-.05-.11-.12-.21-.18-.32-.1-.16-.15-.34-.15-.53,0-.06,.01-.13,0-.2-.2-.79,.07-1.56,.05-2.35,0-.05,.02-.09,.03-.14,.05-.21,.09-.42,.15-.63,.11-.4,.2-.79,.39-1.17,.2-.38,.33-.79,.49-1.19,.02-.04,.03-.09,.04-.14,.03-.17,0-.22-.18-.23-.04,0-.08,0-.11,0-.24,0-.39-.14-.4-.37-.02-.34,.05-.65,.29-.91,.28-.31,.56-.63,.84-.95,.17-.19,.16-.22-.05-.35-.2-.12-.26-.26-.16-.47,.06-.13,.16-.25,.26-.36,.11-.13,.23-.25,.35-.36,.11-.1,.23-.2,.36-.27,.34-.2,.69-.39,1.02-.59,.3-.18,.62-.31,.97-.37,.14-.03,.27-.07,.4-.12,.1-.04,.24-.09,.22-.22-.01-.08-.13-.14-.2-.21-.01-.01-.03-.02-.05-.03-.26-.18-.27-.4,0-.59,.1-.07,.21-.13,.31-.19,.14-.08,.27-.16,.42-.23,.53-.27,1.07-.54,1.61-.8,.17-.08,.36-.1,.53-.19,.62-.34,1.3-.41,1.99-.41,.3,0,.55,.1,.75,.32,.34,.37,.81,.49,1.22,.69,.12-.07,.15-.15,.11-.26-.07-.16-.12-.33-.2-.49-.17-.32-.06-.53,.31-.55,.12,0,.24,0,.37,0,.35,.01,.69,.03,1.04,.05,.12,0,.24,.01,.36,.04,.75,.19,1.51,.37,2.26,.57,.36,.1,.71,.23,1.07,.34,.47,.14,.92,.32,1.3,.65,.12,.1,.27,.17,.41,.25,.36,.21,.76,.38,1.09,.64,.49,.38,.95,.79,1.39,1.22,.22,.22,.4,.5,.55,.77,.13,.24,.04,.44-.22,.54-.11,.04-.24,.05-.36,.06-.18,0-.36,0-.54,0-.05,0-.13,.04-.14,.07,0,.05,.02,.13,.06,.17,.11,.09,.22,.18,.35,.23,.44,.21,.82,.49,1.2,.77,.52,.39,.94,.86,1.32,1.37,.12,.16,.2,.33,.23,.54,.05,.3,.14,.6,.19,.91,.04,.28,.09,.56,.07,.84-.02,.48-.08,.95-.13,1.43,0,.08-.01,.17-.04,.25-.04,.14-.08,.29-.16,.42-.17,.28-.42,.28-.59,0-.05-.08-.07-.17-.12-.25-.06-.11-.12-.22-.2-.3-.04-.05-.14-.08-.2-.06-.05,.02-.11,.1-.12,.16-.02,.07,0,.15,0,.22,.03,.45,.07,.9,.1,1.34,0,.05,0,.09-.01,.14-.11,.62-.21,1.24-.34,1.85-.05,.24-.12,.49-.26,.68-.19,.26-.45,.48-.69,.7-.16,.15-.34,.11-.45-.08-.06-.11-.09-.25-.11-.37-.05-.29-.08-.58-.13-.86-.02-.14-.06-.29-.23-.32-.15-.02-.26,.08-.35,.19-.03,.04-.06,.08-.08,.12-.08,.19-.19,.37-.23,.57-.12,.56-.45,1-.77,1.45-.11,.15-.24,.29-.33,.46-.29,.51-.69,.91-1.15,1.25-.1,.07-.2,.13-.29,.22-.27,.25-.24,.4-.06,.63,.03,.04,.08,.08,.12,.12,.18,.21,.38,.42,.55,.64,.26,.35,.5,.7,.75,1.06,.17,.25,.29,.52,.36,.82,.03,.14,.1,.28,.16,.42,.08,.17,.16,.34,.23,.51,.06,.13,.09,.27,.16,.39,.22,.35,.3,.72,.27,1.13-.01,.19,.02,.37,.11,.54,.06,.11,.11,.25,.12,.37,.03,.52,.04,1.03,.05,1.55,0,.34-.04,.67-.03,1.01,.02,.48-.12,.93-.23,1.38-.12,.49-.29,.97-.46,1.45-.07,.2-.16,.38-.24,.57-.07,.16-.15,.32-.22,.48-.22,.5-.45,.99-.76,1.44-.32,.48-.62,.96-.93,1.44-.13,.2-.25,.39-.39,.58-.25,.33-.51,.65-.75,.98-.17,.22-.3,.47-.49,.65-.38,.37-.69,.79-1.01,1.21-.07,.09-.12,.2-.17,.31,.17,.1,.26,0,.36-.06,.21-.14,.43-.28,.62-.43,.27-.21,.54-.44,.8-.66,.18-.15,.33-.33,.53-.46,.29-.2,.53-.44,.75-.71,.26-.32,.55-.61,.84-.91,.08-.08,.2-.13,.32-.17,.16-.06,.29,.02,.3,.19,0,.17-.03,.36-.09,.52-.11,.29-.25,.57-.39,.84-.07,.14-.17,.27-.26,.4-.24,.35-.48,.69-.72,1.04-.06,.09-.12,.19-.2,.27-.63,.62-1.13,1.36-1.82,1.91-.15,.12-.29,.24-.44,.35-.2,.14-.4,.28-.6,.42-.33,.24-.63,.5-.98,.71-.48,.29-.99,.54-1.49,.8-.71,.37-1.42,.72-2.13,1.08-.1,.05-.21,.09-.31,.13-.46,.18-.93,.35-1.38,.55-.55,.24-1.07,.55-1.67,.67-.06,.01-.12,.04-.19,.06-.36,.15-.71,.29-1.06,.44-.78,.33-1.55,.66-2.33,1-.3,.13-.59,.28-.89,.43-.3,.15-.61,.29-.91,.45-.26,.14-.52,.27-.75,.44-.21,.16-.17,.35,.07,.42,.25,.08,.5,.16,.76,.21,.5,.1,1,.14,1.51,.16,.52,.03,1.05,.02,1.57,.12,.11,.02,.23,0,.34,0,.29,0,.58,.02,.87,.03,.27,0,.54,.02,.82,.02,.36,0,.71-.03,1.07-.05,.08,0,.15,0,.22-.01,.62-.09,1.24-.19,1.87-.18,.18,0,.35-.03,.53-.07,.5-.1,1.01-.22,1.51-.31,.51-.09,1.02-.13,1.53-.24,.88-.19,1.79-.23,2.63-.58,.04-.02,.09-.02,.14-.03,.63-.1,1.23-.33,1.83-.55,.35-.13,.7-.26,1.05-.4,.27-.11,.54-.22,.8-.35,.51-.25,1.07-.42,1.53-.77,.1-.08,.23-.14,.35-.17,.42-.11,.79-.31,1.14-.53,.99-.63,2.02-1.2,2.95-1.92,.48-.36,.98-.7,1.44-1.08,.61-.52,1.2-1.07,1.8-1.62,.28-.26,.55-.54,.81-.81,.39-.4,.77-.8,1.15-1.2,.27-.28,.53-.58,.72-.93,.22-.41,.51-.76,.83-1.1,.26-.27,.47-.57,.63-.92,.13-.29,.34-.54,.51-.81,.12-.19,.24-.38,.34-.58,.13-.25,.23-.52,.38-.75,.52-.79,.83-1.68,1.22-2.53,.16-.35,.3-.71,.42-1.07,.24-.8,.45-1.6,.79-2.37,.05-.11,.06-.23,.09-.35,.13-.53,.26-1.06,.38-1.59,.06-.27,.15-.54,.17-.82,.04-.77,.19-1.52,.25-2.29,.06-.75,.11-1.49,.16-2.24,.01-.19,.03-.37,.03-.56,0-.29,0-.58-.04-.87"/>
      </g>
      <path class="cls-1" d="M36.12,26.44c-.47,.25-.94,.51-1.42,.75-.27,.14-.47,.09-.61-.18-.11-.22-.2-.45-.27-.68-.14-.41-.26-.82-.38-1.23-.13-.42-.25-.84-.37-1.27-.08-.29,.05-.53,.24-.74,.04-.04,.08-.08,.13-.11,.45-.33,.87-.68,1.23-1.11,.15-.18,.34-.29,.6-.29,.17,0,.31,.07,.41,.23,.05,.08,.1,.17,.11,.26,.05,.49,.37,.83,.62,1.21,.33,.49,.81,.8,1.27,1.13,.12,.09,.25,.17,.36,.27,.2,.19,.2,.41,.02,.62-.19,.21-.43,.36-.68,.49-.42,.21-.83,.43-1.25,.65m-4.67-4.07c-.49-.03-.97-.1-1.39-.39-.28-.19-.52-.4-.67-.7-.09-.18-.2-.36-.31-.54-.14-.23-.21-.47-.22-.74-.02-.34-.06-.67-.08-1.01,0-.13-.01-.27,0-.39,.09-.56,.24-1.1,.46-1.62,.11-.25,.32-.46,.49-.68,.11-.13,.23-.25,.34-.37,.47-.51,1.08-.73,1.74-.84,.14-.02,.28-.03,.42-.04,.73-.08,1.39,.1,2.02,.47,.14,.08,.31,.14,.47,.19,.25,.08,.44,.24,.57,.47,.08,.15,.18,.28,.28,.42,.16,.22,.25,.46,.14,.73-.18,.08-.32,0-.45-.09-.27-.18-.52-.37-.78-.55-.39-.26-.81-.43-1.29-.41-.06,0-.12,.03-.18,.04,.02,.16,.15,.2,.24,.22,.43,.12,.8,.38,1.17,.6,.3,.18,.53,.45,.67,.78,.09,.21,.19,.41,.25,.63,.06,.18,.08,.36,.11,.55,.02,.1,0,.21,.03,.31,.08,.3,0,.58-.17,.83-.23,.32-.46,.64-.7,.95-.07,.09-.15,.17-.24,.24-.35,.23-.69,.5-1.07,.67-.37,.16-.78,.25-1.19,.32-.21,.04-.45-.03-.67-.04m4.75-2.48c.11-.52,.24-1.03,.61-1.43,.38-.43,.82-.82,1.32-1.08,.55-.28,1.16-.4,1.8-.26,.34,.08,.68,.12,1.03,.17,.42,.06,.8,.2,1.14,.44,.17,.12,.35,.21,.54,.3,.32,.15,.53,.41,.74,.68,.04,.04,.05,.1,.08,.15,.05,.12,.03,.22-.05,.31-.08,.09-.19,.12-.31,.07-.14-.06-.28-.14-.42-.22-.18-.1-.36-.21-.64-.1,.06,.09,.09,.16,.15,.21,.74,.61,1.05,1.43,1.14,2.36,.05,.51-.07,.96-.38,1.34-.24,.29-.54,.52-.83,.76-.31,.25-.67,.41-1.07,.46-.24,.03-.47,.12-.71,.17-.69,.15-1.38,.2-2.08-.02-.35-.11-.58-.36-.86-.57-.45-.35-.68-.82-.87-1.35-.17-.47-.26-.95-.37-1.44-.07-.32-.02-.63,.05-.94m-9.78,31.2c.07-.05,.15-.08,.22-.12,.46-.27,.93-.52,1.37-.83,.37-.26,.7-.57,1.12-.75,.05-.02,.09-.06,.14-.1,.3-.27,.65-.44,.99-.63,.55-.3,1.12-.59,1.61-.97,.52-.4,1.07-.73,1.62-1.06,.46-.27,.92-.54,1.33-.89,.25-.21,.53-.4,.82-.55,.29-.16,.54-.36,.79-.58,.4-.35,.75-.77,1.22-1.03,.1-.05,.18-.13,.26-.21,.46-.49,.92-.99,1.37-1.49,.23-.26,.5-.5,.66-.79,.27-.48,.51-.99,.69-1.51,.29-.86,.54-1.73,.54-2.66,0-.37,0-.73-.07-1.08-.16-.7-.35-1.4-.54-2.1-.09-.31-.18-.61-.32-.9-.45-.89-.79-1.85-1.44-2.63-.03-.04-.05-.08-.07-.12-.21-.43-.46-.84-.7-1.25-.26-.44-.32-.93-.06-1.4,.35-.62,.81-1.11,1.58-1.16,.05,0,.09-.01,.14-.03,.82-.24,1.64-.45,2.43-.78,.12-.05,.22-.14,.33-.21,.21-.14,.4-.31,.62-.43,.42-.24,.84-.48,1.15-.88,.36-.45,.75-.87,1-1.39,.17-.35,.35-.71,.44-1.09,.09-.36,.08-.74,.12-1.11,0-.05,0-.09,0-.14-.08-.45-.13-.91-.32-1.34-.09-.19-.18-.4-.31-.56-.31-.36-.61-.73-1.01-1.01-.3-.21-.59-.42-.94-.56-.49-.19-.98-.37-1.52-.35-.3,0-.6,0-.89,0-.2,0-.39-.04-.59-.03-.38,.03-.76,.08-1.14,.12-.29,.03-.49-.12-.53-.41-.03-.2,.03-.37,.13-.53,.34-.57,.86-.93,1.41-1.26,.07-.04,.16-.06,.24-.08,.47-.11,.96-.18,1.42-.34,.54-.19,1.09-.25,1.66-.21,.08,0,.17-.03,.26-.04,0-.02,0-.04,0-.06-.06-.04-.12-.08-.18-.1-.45-.13-.91-.25-1.38-.25-.55,0-1.11,.04-1.66,.07-.07,0-.15,.03-.22,.05-.71,.21-1.35,.56-1.93,1.02-.19,.15-.4,.28-.62,.38-.28,.13-.48,.06-.66-.19-.19-.27-.4-.53-.55-.82-.23-.43-.57-.74-.95-1.01-.49-.34-1.03-.57-1.64-.62-.15-.01-.3-.02-.41,.12,.04,.16,.18,.18,.3,.23,.42,.16,.78,.4,1.04,.78,.18,.26,.37,.52,.52,.8,.12,.23,.21,.48,.28,.73,.06,.27-.11,.42-.37,.36-.17-.04-.34-.1-.5-.19-.84-.45-1.75-.64-2.7-.7-.14,0-.28,0-.42,.04-.48,.12-.96,.25-1.44,.38-.2,.05-.37,.16-.53,.31-.26,.27-.55,.51-.8,.79-.31,.35-.62,.71-.87,1.1-.24,.37-.45,.78-.5,1.24,0,.11-.08,.21-.12,.31-.16,.41-.34,.82-.38,1.26-.03,.35-.02,.71-.05,1.07-.03,.36,.07,.71,.13,1.06,.04,.22,.04,.45,.1,.66,.07,.23,.16,.46,.16,.71,0,.08,.03,.17,.06,.24,.12,.29,.23,.57,.37,.85,.13,.24,.26,.49,.44,.68,.43,.44,.88,.87,1.35,1.27,.32,.27,.68,.5,1.08,.65,.41,.16,.82,.32,1.25,.42,.59,.14,1.17,.32,1.76,.47,.4,.1,.76,.25,1.11,.47,.3,.19,.61,.37,.91,.55,.09,.05,.17,.11,.25,.18,.23,.19,.45,.39,.67,.59,.11,.09,.21,.19,.3,.29,.43,.51,.81,1.05,1.14,1.63,.5,.88,.77,1.81,.84,2.8,.05,.76,.04,1.51-.19,2.26-.2,.64-.5,1.23-.78,1.83-.04,.08-.1,.16-.16,.23-.32,.37-.64,.74-.96,1.1-.35,.4-.78,.73-1.21,1.04-.17,.12-.33,.24-.49,.37-.17,.15-.37,.25-.58,.34-.52,.21-1.06,.38-1.54,.69-.14,.09-.31,.14-.46,.2-.32,.12-.65,.23-.98,.36-.3,.12-.6,.26-.9,.39-.16,.07-.32,.12-.47,.19-.63,.32-1.29,.55-1.97,.75-.12,.04-.23,.08-.34,.13-.41,.2-.83,.4-1.24,.6-.19,.09-.38,.17-.56,.26-.41,.2-.83,.4-1.24,.6-.34,.16-.67,.33-1.01,.5-.14,.07-.29,.14-.42,.23-.46,.32-.92,.65-1.39,.96-.84,.54-1.53,1.23-2.22,1.94-.21,.22-.39,.48-.57,.73-.2,.28-.39,.58-.59,.86-.17,.24-.31,.49-.37,.78-.04,.18-.12,.35-.18,.53-.08,.23-.15,.46-.22,.69-.06,.19-.1,.38-.15,.57-.03,.1-.06,.2-.07,.3-.06,.65-.15,1.3-.1,1.96,.03,.39-.06,.78-.03,1.18,.09,1,.12,2,.2,3,.02,.32,.11,.65,.18,.97,.03,.14,.08,.29,.25,.35,.19-.08,.26-.24,.33-.4,.22-.5,.43-1,.66-1.49,.1-.21,.24-.4,.36-.6,.11-.2,.22-.41,.32-.62,.1-.2,.18-.41,.29-.61,.14-.24,.3-.47,.46-.71,.1-.16,.2-.32,.31-.47,.91-1.23,2.02-2.26,3.18-3.25,.38-.32,.78-.61,1.18-.92,.42-.33,.84-.66,1.26-.98"/>
    </g>
  </g>
</svg>